<svg width="138" height="44" viewBox="0 0 138 44" fill="none" xmlns="http://www.w3.org/2000/svg">
<path fill-rule="evenodd" clip-rule="evenodd" d="M99.8245 29.5648L94.6309 20.6637L99.8245 11.7625H110.213L112.326 15.3833C112.361 15.4438 112.412 15.4939 112.472 15.5288C112.533 15.5636 112.602 15.582 112.672 15.582H116.678C116.747 15.5825 116.816 15.5646 116.877 15.5301C116.937 15.4956 116.988 15.4457 117.023 15.3854C117.058 15.3252 117.076 15.2567 117.076 15.187C117.076 15.1173 117.058 15.0488 117.023 14.9884L113.721 9.32733C113.4 8.78267 112.942 8.33124 112.393 8.01762C111.844 7.704 111.222 7.53905 110.59 7.53906H99.4482C98.816 7.53907 98.1947 7.70404 97.6458 8.01766C97.0968 8.33128 96.6392 8.7827 96.3181 9.32733L90.7461 18.876C90.4301 19.419 90.2637 20.036 90.2637 20.6642C90.2637 21.2925 90.4301 21.9095 90.7461 22.4525L96.3178 31.9999C96.6387 32.5446 97.0963 32.9961 97.6453 33.3098C98.1943 33.6234 98.8156 33.7883 99.4479 33.7881H105.577C105.646 33.7889 105.715 33.7712 105.776 33.7368C105.836 33.7024 105.887 33.6526 105.922 33.5924C105.957 33.5322 105.976 33.4637 105.976 33.394C105.976 33.3242 105.958 33.2557 105.923 33.1953L103.92 29.762C103.885 29.7018 103.834 29.6519 103.774 29.6173C103.713 29.5827 103.644 29.5645 103.574 29.5647L99.8245 29.5648Z" fill="#228BC4"/>
<path fill-rule="evenodd" clip-rule="evenodd" d="M120.438 11.7625L125.631 20.6637L120.438 29.5649H110.05L107.936 25.9433C107.901 25.883 107.85 25.833 107.79 25.7983C107.729 25.7635 107.66 25.7452 107.59 25.7452H103.585C103.515 25.7445 103.446 25.7623 103.386 25.7967C103.325 25.8311 103.275 25.8809 103.239 25.9411C103.204 26.0013 103.186 26.0698 103.186 26.1395C103.185 26.2092 103.204 26.2777 103.239 26.338L106.542 31.9993C106.863 32.5441 107.321 32.9956 107.87 33.3092C108.419 33.6228 109.041 33.7877 109.673 33.7876H120.815C121.447 33.7876 122.068 33.6227 122.617 33.3091C123.166 32.9954 123.624 32.544 123.945 31.9993L129.517 22.4518C129.833 21.9088 129.999 21.2918 129.999 20.6635C129.999 20.0353 129.833 19.4182 129.517 18.8753L123.944 9.32735C123.624 8.78249 123.166 8.33087 122.617 8.0172C122.068 7.70354 121.447 7.53873 120.815 7.53908H114.686C114.616 7.53836 114.548 7.55608 114.487 7.59045C114.426 7.62482 114.376 7.67462 114.341 7.7348C114.305 7.79497 114.287 7.8634 114.286 7.93313C114.286 8.00286 114.304 8.07143 114.339 8.13189L116.343 11.5652C116.378 11.6254 116.429 11.6753 116.489 11.7099C116.55 11.7445 116.619 11.7627 116.689 11.7625H120.438Z" fill="#1F4280"/>
<path fill-rule="evenodd" clip-rule="evenodd" d="M61.928 24.4163V33.7938H63.2942V30.1375L65.8736 33.9168L67.2208 33.4084L64.8373 30.1905L66.6474 27.9071L65.4316 27.295L63.2951 30.1098V24.4163H61.928ZM53.1526 33.7944H51.6301V25.6555H48.5V24.4163H56.2221V25.6555H53.153L53.1526 33.7944ZM76.3677 33.7944H74.931V28.411H73.965V27.202H74.931V27.0809C74.931 26.1209 75.1521 25.444 75.5946 25.0331C76.0586 24.6149 76.6671 24.3934 77.2914 24.4156C77.5436 24.4156 78.387 24.5307 78.387 24.5307V25.6895C78.387 25.6895 77.6588 25.604 77.4744 25.604C77.1883 25.5966 76.9069 25.6775 76.6685 25.8357C76.5282 25.9213 76.3675 26.1867 76.3675 26.8807V27.202H78.2973V28.411H76.3677V33.7944Z" fill="#1F4281"/>
<path fill-rule="evenodd" clip-rule="evenodd" d="M16.8454 33.8192H18.232V24.5298H16.8454V33.8192ZM11.4476 24.9909L8 33.8192H9.31228L10.2064 31.3425H13.5328L14.3428 33.8192H15.954L12.7783 24.9909H11.4482H11.4476ZM11.9348 26.5534L13.2418 30.4686H10.5185L11.9355 26.5534H11.9348ZM44.2255 33.8192H45.6122V27.579H44.2255V33.8192ZM44.2255 26.5422H45.6122V25.3274H44.2255V26.5422ZM34.3194 26.5422H35.706V25.3274H34.3199L34.3194 26.5422ZM37.1074 24.5298V33.8171H38.4947V30.0784C38.4947 29.0226 39.1064 28.3359 40.042 28.3359C40.9204 28.3359 41.4326 28.9071 41.4326 29.9675V33.8179H42.8204V29.7631C42.8204 28.2046 42.1054 27.4194 40.7094 27.4194C40.3269 27.4149 39.9477 27.4917 39.597 27.6445C39.2463 27.7974 38.932 28.023 38.6749 28.3063L38.4787 28.5247V24.5298H37.107H37.1074ZM84.8594 33.8171V27.5989H83.4721V31.3617C83.4721 32.405 82.8598 33.0938 81.919 33.0938C81.0407 33.0938 80.5284 32.516 80.5284 31.4798V27.5989H79.1412V31.6595C79.1412 33.2219 79.8549 34.0031 81.2509 34.0031C81.6327 34.0104 82.0117 33.9354 82.3619 33.7832C82.7122 33.631 83.0256 33.4051 83.2807 33.1209L83.4822 32.9044V33.8181H84.8586L84.8594 33.8171ZM21.353 24.9909V33.8166H22.7397V30.0964H23.9052C23.9052 30.0964 25.6448 33.8181 25.7199 33.97C25.855 33.9393 27.0711 33.7096 27.3132 33.6648C27.173 33.391 25.2821 29.8239 25.2821 29.8239L25.3788 29.7659C25.8233 29.5157 26.1903 29.1477 26.4393 28.7025C26.6884 28.2572 26.8098 27.752 26.7904 27.2422C26.7904 25.8285 25.7859 24.9915 24.1171 24.9915H21.353V24.9909ZM22.7397 25.8652H23.8861C24.8211 25.8652 25.3847 26.465 25.3847 27.3982C25.3847 28.2341 24.8559 29.2211 23.6854 29.2211H22.7397V25.8652ZM34.3195 27.5783V33.8752C34.3337 34.4336 34.2519 34.9903 34.0777 35.5211C34.0145 35.6462 33.9253 35.7562 33.8161 35.844C33.7068 35.9317 33.5801 35.9951 33.4444 36.0299V36.4668C35.0312 36.4452 35.7055 35.6497 35.7055 33.8179V27.5785H34.3199L34.3195 27.5783ZM30.6251 27.4193C29.8123 27.4055 29.0223 27.6883 28.4029 28.2148C28.4838 28.3361 28.7261 28.6984 28.8164 28.8428C29.2495 28.439 29.8217 28.2178 30.4138 28.2252C31.0479 28.2252 31.4891 28.6986 31.5793 29.3305L31.5892 29.4283L30.113 29.8796C28.6052 30.3347 27.8973 31.0514 27.8973 32.128C27.8973 33.2046 28.5939 33.9788 29.5697 33.9788C30.8859 33.9788 31.6344 32.7437 31.6344 32.7437V33.8177H33.0566V29.7194C33.0566 28.196 32.242 27.4194 30.6249 27.4194M31.0371 32.6148C30.9309 32.7461 30.7978 32.8531 30.6467 32.9286C30.4957 33.0041 30.3301 33.0462 30.1614 33.0523C29.6807 33.0523 29.308 32.5841 29.308 31.9978C29.308 31.1931 29.7388 30.6554 30.6005 30.3846L31.5079 30.0684L31.6606 30.0168L31.6699 30.1753C31.7601 31.5905 31.3129 32.311 31.0375 32.6142M57.982 27.4194C57.1684 27.4048 56.3775 27.6877 55.7577 28.215C55.8427 28.3363 56.0784 28.6986 56.1686 28.8429C56.6053 28.4381 57.1811 28.217 57.7765 28.2254C58.4 28.2254 58.8464 28.6988 58.9373 29.3307L58.942 29.4285L57.4651 29.8797C55.9685 30.3349 55.2548 31.0516 55.2548 32.1282C55.2548 33.2048 55.9527 33.979 56.9225 33.979C58.2387 33.979 58.9926 32.7439 58.9926 32.7439V33.8179H60.4083V29.7194C60.4083 28.196 59.5958 27.4194 57.9826 27.4194M58.3895 32.6148C58.2837 32.7461 58.1508 32.8531 58 32.9286C57.8492 33.0041 57.6839 33.0463 57.5153 33.0523C57.0326 33.0523 56.6614 32.5841 56.6614 31.9978C56.6614 31.1931 57.0933 30.6563 57.9459 30.3846L58.8512 30.0684L59.0125 30.0168L59.021 30.1753C59.114 31.5905 58.6708 32.311 58.3886 32.6142M70.5906 27.4194C69.7748 27.4031 68.9812 27.6861 68.3599 28.215C68.4408 28.3363 68.6712 28.6986 68.7614 28.8429C69.2001 28.4412 69.7745 28.2206 70.3693 28.2254C71.0125 28.2254 71.4438 28.6988 71.5348 29.3307L71.5493 29.4285L70.0771 29.8797C68.566 30.3349 67.8582 31.0516 67.8582 32.1282C67.8582 33.2048 68.566 33.979 69.5207 33.979C70.8429 33.979 71.5854 32.7439 71.5854 32.7439V33.8179H73.0123V29.7194C73.0123 28.196 72.1938 27.4194 70.5905 27.4194M70.992 32.6148C70.8863 32.7474 70.7528 32.8553 70.6009 32.9309C70.4491 33.0064 70.2825 33.0479 70.113 33.0523C69.6409 33.0523 69.2544 32.5841 69.2544 31.9978C69.2544 31.1931 69.6863 30.6554 70.5501 30.3846L71.4745 30.0684L71.6155 30.0168L71.6261 30.1753C71.7156 31.5905 71.2727 32.311 70.992 32.6142M86.0018 33.8199H87.3969V24.5298H86.0018V33.8199ZM10.4836 21.7461H12.1935V20.2517H10.4836V21.7461ZM12.873 21.7461H14.5843V20.2517H12.8734L12.873 21.7461ZM31.4238 20.6884H33.1351V19.2112H31.4238V20.6884ZM65.9379 9.01093H67.6491V7.55208H65.9379V9.01093ZM31.3613 10.7653C30.9692 10.7682 30.5779 10.8026 30.1913 10.8684V12.0996C30.5834 11.9172 31.0128 11.8297 31.445 11.844C33.1957 11.844 35.0513 13.4665 35.0513 16.4395C35.0511 16.5817 35.0336 16.7233 34.9992 16.8613H28.9568V16.4664C28.9568 13.1152 26.6654 10.765 23.3878 10.765C22.9744 10.7681 22.5621 10.806 22.1551 10.8784V12.0789L22.2018 12.0992C22.5974 11.9156 23.0308 11.828 23.4666 11.8436C25.216 11.8436 27.0709 13.4662 27.0709 16.4391L27.0623 16.861H20.2707V10.7653H18.7365C14.5725 10.7653 14.4369 12.8788 14.4369 15.3725V16.909C14.4369 18.1219 14.0069 18.3598 13.3505 18.3598H12.0112C11.1632 18.3598 9.76464 18.2359 9.76464 15.1893C9.76464 12.6096 10.9037 11.7612 13.1734 11.7761V10.7644C11.4279 10.7735 10.3243 11.1022 9.30837 12.0665C8.43005 12.907 8.06213 13.7933 8.06213 15.21C8.06213 18.3687 9.46592 19.4357 11.3812 19.4357H13.7848C15.3071 19.4357 16.1571 18.4921 16.1571 16.7477V15.1374C16.1571 13.022 16.4666 11.8306 18.5657 11.8306V17.9502H36.7399C36.8539 17.4267 36.9233 16.8944 36.9473 16.3591C36.8643 13.0668 34.6053 10.7659 31.3611 10.7659M85.7559 10.0342H87.4711V8.54387H85.7559V10.0342ZM83.3683 10.0342H85.083V8.54387H83.3698L83.3683 10.0342ZM38.5837 17.9493H40.295V7.54427H38.5837V17.9493ZM67.784 14.5009H66.4585C66.1061 14.5009 65.7682 14.3609 65.519 14.1118C65.2698 13.8626 65.1299 13.5246 65.1299 13.1723C65.1299 12.8199 65.2698 12.4819 65.519 12.2328C65.7682 11.9836 66.1061 11.8436 66.4585 11.8436H67.784V14.5009ZM68.0751 10.7735H66.1012C65.7899 10.7696 65.4809 10.8275 65.1922 10.944C64.9035 11.0604 64.6407 11.233 64.4192 11.4517C64.1977 11.6705 64.0218 11.931 63.9018 12.2182C63.7817 12.5055 63.7199 12.8137 63.7199 13.125C63.7199 13.4363 63.7817 13.7446 63.9018 14.0318C64.0218 14.319 64.1977 14.5796 64.4192 14.7983C64.6407 15.0171 64.9035 15.1897 65.1922 15.3061C65.4809 15.4225 65.7899 15.4804 66.1012 15.4765H67.8256V15.6402C67.8256 16.4488 67.443 16.8909 66.7044 16.8909H61.4981V7.55153H59.7894V16.9171C59.7894 18.1319 59.3648 18.368 58.6964 18.368H57.3643C56.515 18.368 55.1156 18.2441 55.1156 15.1988C55.1156 12.6178 56.256 11.7687 58.5145 11.7843V10.7735C56.7802 10.7834 55.6753 10.8368 54.6607 11.802C53.7797 12.6412 53.3958 13.8026 53.3958 15.2191C53.3958 18.3778 54.8048 19.4453 56.732 19.4453H59.1352C60.2546 19.4453 61.0005 18.923 61.3212 17.9586H67.1155C67.8967 17.9586 68.4884 17.6913 68.9216 17.1279C69.3159 16.606 69.5194 15.9648 69.4982 15.3112V10.7756H68.0753V10.7735H68.0751ZM45.3801 15.2927C45.3801 16.6035 44.7532 16.8604 44.2304 16.8604H43.6292V10.7644H41.935V18.0187C41.935 18.974 41.935 19.4775 41.6395 20.0305C41.4671 20.3368 41.1868 20.5679 40.8532 20.6787V21.1914C42.7962 21.1588 43.6292 20.1754 43.6292 17.9491H44.6433C45.4492 17.9491 46.0536 17.6701 46.5 17.1078C46.9037 16.5687 47.1115 15.908 47.0893 15.2349V7.54297H45.3793V15.292L45.3801 15.2927ZM48.7168 17.9493H50.4281V7.54427H48.7168V17.9493Z" fill="#1F4281"/>
<path fill-rule="evenodd" clip-rule="evenodd" d="M85.7627 10.7257V15.364C85.7627 16.6887 85.1303 16.9482 84.6124 16.9482H82.6437V16.5228C82.6437 13.3906 80.6789 11.1286 77.7864 10.8089L82.7287 7.54501H80.8739L75.8415 10.8807V12.0929L75.8889 12.1139C76.284 11.9286 76.7176 11.8401 77.1537 11.8557C78.9031 11.8557 80.758 13.4926 80.758 16.4964L80.75 16.948H74.9847C74.4672 16.948 73.8449 16.6885 73.8449 15.3638V7.53906H72.1463V15.3067C72.1232 15.9859 72.3312 16.6528 72.7363 17.1984C72.9534 17.4783 73.235 17.7016 73.557 17.8492C73.879 17.9969 74.2319 18.0645 74.5857 18.0464H85.0272C85.8345 18.0464 86.4362 17.7651 86.8709 17.1984C87.28 16.6542 87.4919 15.9872 87.4721 15.3067V10.7257H85.7627Z" fill="#1F4281"/>
</svg>
